<svg version="1.1" id="Layer_1" xmlns="http://www.w3.org/2000/svg" xmlns:xlink="http://www.w3.org/1999/xlink" x="0px" y="0px"
	 width="100%" viewBox="0 0 1024 1024" enable-background="new 0 0 1024 1024" xml:space="preserve">
<path fill="#FFFFFF" opacity="1.000000" stroke="none" 
	d="
M600.000000,1025.000000 
	C400.000000,1025.000000 200.500000,1025.000000 1.000000,1025.000000 
	C1.000000,683.666687 1.000000,342.333344 1.000000,1.000000 
	C342.333344,1.000000 683.666687,1.000000 1025.000000,1.000000 
	C1025.000000,342.333344 1025.000000,683.666687 1025.000000,1025.000000 
	C883.500000,1025.000000 742.000000,1025.000000 600.000000,1025.000000 
M722.942932,573.162903 
	C704.248901,583.263062 701.469666,604.656738 717.264771,618.631836 
	C719.767212,620.845947 719.579895,622.490784 718.510376,624.972473 
	C713.503540,636.590393 708.558044,648.234619 703.606689,659.876404 
	C701.826782,664.061340 700.091919,668.265442 698.263306,672.635742 
	C722.872742,672.635742 746.771423,672.635742 771.390869,672.635742 
	C763.603821,654.996155 756.058838,637.904785 748.585449,620.975647 
	C749.513367,620.161255 749.850525,619.787720 750.257202,619.519531 
	C769.055908,607.123474 763.553589,581.693726 746.149231,573.947205 
	C744.948730,573.412903 744.131226,572.018066 743.350586,570.101440 
	C743.321899,536.374268 743.306458,502.647064 743.252258,468.919952 
	C743.242615,462.945435 743.071655,456.971222 743.468201,450.453827 
	C751.879700,447.628784 760.291199,444.803772 769.194641,441.813538 
	C674.708923,410.158569 580.941467,378.726746 487.130676,347.424896 
	C484.977417,346.706421 482.147491,346.885040 479.946350,347.604004 
	C388.337372,377.526123 296.763550,407.555878 205.189163,437.583832 
	C201.478073,438.800720 197.803864,440.130096 192.865646,441.838379 
	C195.602219,442.853912 197.070251,443.469543 198.581558,443.948700 
	C215.078598,449.178619 231.580017,454.394775 248.084778,459.600250 
	C324.108612,483.577606 400.122223,507.587677 476.199097,531.395508 
	C479.407898,532.399719 483.488312,532.387634 486.694031,531.371094 
	C548.102783,511.898651 609.429688,492.168396 670.801514,472.579010 
	C688.390320,466.964783 706.066833,461.625336 723.716003,457.074066 
	C723.661011,495.690979 723.606079,534.307861 722.942932,573.162903 
M434.189423,740.133972 
	C439.480286,740.753784 444.781982,741.295410 450.057892,742.023682 
	C453.097748,742.443298 455.365875,741.787598 457.372589,739.200256 
	C461.453369,733.938660 465.973297,729.017883 470.062164,723.762146 
	C471.185059,722.318787 471.986572,720.185242 471.982605,718.370483 
	C471.904266,682.711731 471.710449,647.053162 471.409973,611.395569 
	C471.396759,609.829285 470.533234,607.874268 469.406464,606.778137 
	C462.550018,600.108032 461.756012,590.276001 467.756958,583.490356 
	C473.780151,576.679504 484.062042,575.849854 491.228790,581.596436 
	C497.626190,586.726135 498.827179,597.899414 493.002960,604.581726 
	C490.414307,607.551819 489.910431,610.431152 489.799225,613.955505 
	C488.611359,651.589233 487.398315,689.222412 485.974670,726.847595 
	C485.887482,729.151550 484.377045,731.736450 482.808258,733.576233 
	C479.979553,736.893494 476.605225,739.745544 472.558899,743.663147 
	C500.962616,744.261963 527.752319,742.728455 555.396790,737.706604 
	C544.117371,728.939331 534.108154,720.649292 523.531067,713.161316 
	C518.533997,709.623779 516.915527,705.661438 517.002014,699.844421 
	C517.195007,686.852051 516.831238,673.851624 516.722717,660.854248 
	C516.695923,657.648560 516.124634,655.102173 513.425537,652.573059 
	C506.166840,645.771362 506.602661,633.632324 513.771118,627.084961 
	C520.782532,620.681091 532.683105,621.467834 538.933228,628.748474 
	C545.148560,635.988647 543.558533,647.779114 535.814941,654.209839 
	C534.307800,655.461487 533.046570,657.899292 532.971680,659.840149 
	C532.509277,671.826233 532.609558,683.834656 532.102600,695.817932 
	C531.922546,700.073181 533.226257,703.079407 536.262695,705.867126 
	C546.201965,714.992371 555.996277,724.275452 565.892517,733.447998 
	C566.676453,734.174683 567.916687,735.094421 568.774414,734.945129 
	C574.375366,733.970337 579.929260,732.725281 586.616821,731.336365 
	C579.255371,725.270325 573.149841,719.851196 566.621826,715.000732 
	C562.489807,711.930420 560.848083,708.521057 560.841492,703.301697 
	C560.799133,669.641479 560.458374,635.981079 560.047546,602.322815 
	C560.023193,600.330322 559.071350,597.789062 557.652649,596.468140 
	C550.549438,589.854675 549.616760,579.143433 555.901917,572.301025 
	C562.604309,565.004395 573.483521,564.716736 580.376526,571.653687 
	C586.898682,578.217346 586.374023,589.046753 579.568604,595.953430 
	C577.938293,597.607971 576.529175,600.317139 576.483765,602.570801 
	C575.842163,634.389465 575.394104,666.212708 575.126648,698.036743 
	C575.106934,700.383179 576.227844,703.335327 577.851440,704.995605 
	C584.601318,711.898010 591.704163,718.459839 598.802063,725.011658 
	C599.699402,725.839905 601.604553,726.548035 602.582153,726.157715 
	C608.368164,723.847900 614.018188,721.197205 620.562378,718.283447 
	C617.877197,715.820435 616.039429,713.906006 613.973450,712.281982 
	C607.425354,707.134399 604.931213,700.555969 605.192566,692.197693 
	C605.614197,678.715576 605.175293,665.208191 605.252991,651.712402 
	C605.270203,648.729126 604.575806,646.663147 602.214844,644.465271 
	C595.123230,637.863647 595.498413,625.948303 602.556213,619.397278 
	C609.713074,612.754333 621.246155,613.303833 627.664734,620.593567 
	C633.538025,627.264038 632.414795,638.744934 625.602600,644.984253 
	C624.155457,646.309692 623.001465,648.749023 622.968384,650.696411 
	C622.742126,664.023743 623.311768,677.379089 622.668030,690.679077 
	C622.315674,697.959717 624.803040,702.952332 630.035095,707.528992 
	C633.179199,710.279236 635.627319,711.574097 639.354492,708.664978 
	C641.953918,706.636047 644.938904,704.959961 647.983337,703.675476 
	C652.506958,701.766968 653.707458,698.644287 653.698364,693.897034 
	C653.589294,636.906311 653.677002,579.915222 653.690979,522.924194 
	C653.691345,521.555054 653.434387,520.185974 653.270508,518.548584 
	C651.195251,519.230103 649.783142,519.696838 648.369080,520.157776 
	C594.569458,537.693604 540.751526,555.173767 486.999939,572.855591 
	C482.019928,574.493774 477.623810,574.608093 472.598419,573.023560 
	C418.786835,556.057190 364.911591,539.292969 311.051453,522.480713 
	C309.073700,521.863342 307.072662,521.320557 304.650421,520.617615 
	C304.650421,536.877075 304.653137,552.356934 304.649872,567.836792 
	C304.641144,608.997070 304.609222,650.157410 304.682892,691.317505 
	C304.686432,693.295837 304.960907,696.262207 306.214996,697.086914 
	C313.536804,701.901733 321.188843,706.214539 329.043518,710.883606 
	C333.147888,704.431641 339.056793,700.146545 338.694458,692.073486 
	C338.022247,677.095215 337.945190,662.090576 337.317474,647.109558 
	C337.219208,644.764282 336.026855,642.057373 334.482239,640.251770 
	C328.342926,633.075256 327.871216,622.279419 333.786713,615.462646 
	C339.910431,608.405945 350.730011,607.646362 358.076385,613.757446 
	C365.411133,619.858826 366.546692,631.729858 359.882446,639.342163 
	C357.183411,642.425171 356.397736,645.484802 356.327301,649.213623 
	C356.034668,664.706543 355.847473,680.205322 355.196930,695.684143 
	C355.062256,698.888489 353.612305,702.327026 351.883026,705.106812 
	C349.297943,709.262268 345.927795,712.929321 342.487305,717.320129 
	C348.460449,719.449097 353.702576,721.505859 359.080963,723.104126 
	C360.449158,723.510681 362.679718,722.955139 363.781342,721.998230 
	C370.068054,716.536926 376.055328,710.731995 382.309509,705.231567 
	C385.081543,702.793640 386.001984,700.050171 385.798157,696.426575 
	C385.349121,688.443848 385.200256,680.443054 385.002289,672.447754 
	C384.387695,647.627563 383.856506,622.805054 383.123260,597.988525 
	C383.062622,595.935303 382.274414,593.368469 380.885071,591.980042 
	C373.935272,585.034790 373.296265,574.735046 379.751434,567.743774 
	C385.627716,561.379517 396.467163,560.940552 403.362946,566.787720 
	C410.244385,572.622681 410.810760,583.229919 404.988159,590.699890 
	C403.514618,592.590332 402.377319,595.297852 402.324585,597.657593 
	C401.527496,633.305664 400.993622,668.959717 400.164764,704.606934 
	C400.112518,706.853149 398.664459,709.641052 396.962219,711.172974 
	C390.436432,717.045593 383.541718,722.508362 375.780640,728.958496 
	C384.446655,730.719727 391.872498,732.293701 399.336395,733.660095 
	C400.220978,733.822021 401.537262,733.079346 402.275330,732.365173 
	C410.296417,724.604248 418.350647,716.870422 426.114838,708.856995 
	C427.635620,707.287415 428.708832,704.550415 428.702026,702.355835 
	C428.663269,689.861755 428.353973,677.363708 427.813477,664.880981 
	C427.729279,662.936401 426.404266,660.624207 424.940643,659.229614 
	C416.028198,650.737732 417.060699,635.751587 427.151154,629.868530 
	C434.115051,625.808350 443.456116,627.088501 448.732025,632.826050 
	C454.542053,639.144470 454.882843,649.359253 449.975922,656.955688 
	C448.469208,659.288269 447.390930,662.288513 447.244263,665.043152 
	C446.473633,679.515564 445.936005,694.004456 445.610413,708.494141 
	C445.515839,712.703918 444.251770,715.366699 440.546722,717.768921 
	C431.500824,723.633972 422.854248,730.114990 412.791534,737.236511 
	C420.566742,738.299683 426.933777,739.170349 434.189423,740.133972 
M531.731628,632.725952 
	C527.843628,629.659119 523.651489,629.501587 519.824036,632.392090 
	C516.550903,634.864014 515.368713,638.536377 516.708862,642.618164 
	C517.958435,646.424194 520.722656,649.348572 524.640076,648.931335 
	C527.706543,648.604797 531.383911,646.928040 533.308289,644.617310 
	C536.225647,641.114319 535.241455,636.817505 531.731628,632.725952 
M612.950073,640.786011 
	C619.418335,640.830139 623.507690,637.698975 623.868347,632.426086 
	C624.180664,627.860229 621.178162,623.789551 616.810059,622.856750 
	C611.966553,621.822449 607.426514,624.518005 605.902100,629.333130 
	C604.370850,634.169495 606.484375,637.960327 612.950073,640.786011 
M487.262756,599.727844 
	C490.400269,594.587524 490.055023,589.774292 486.335236,586.797424 
	C482.630585,583.832703 476.778259,584.213928 473.623169,587.625549 
	C470.405945,591.104370 470.308411,596.316528 473.393433,599.904724 
	C476.738922,603.795837 481.246857,603.917480 487.262756,599.727844 
M443.204926,650.695740 
	C446.037598,646.993103 446.452576,643.124817 443.668182,639.264221 
	C441.108673,635.715393 437.443634,635.004822 433.470856,636.180908 
	C429.494873,637.357849 427.153748,640.529236 427.588684,644.379272 
	C427.900299,647.137695 429.583893,650.441772 431.733154,652.131348 
	C435.140869,654.810242 439.230591,654.075317 443.204926,650.695740 
M567.713135,592.010803 
	C573.770386,591.552368 577.173889,588.542603 577.378662,583.463501 
	C577.569946,578.716064 574.156555,574.577209 569.577576,574.004578 
	C564.755310,573.401489 560.395813,576.568298 559.292053,581.476074 
	C558.233337,586.183533 560.790894,589.687134 567.713135,592.010803 
M401.552673,580.189270 
	C401.382477,578.881592 401.413849,577.507080 401.005829,576.278381 
	C399.556488,571.913452 395.190125,569.538635 390.713074,570.529236 
	C385.763336,571.624512 382.746979,575.612671 383.348999,580.265747 
	C383.916382,584.651184 387.753632,588.037476 392.381134,587.979858 
	C397.098877,587.921204 400.220703,585.618896 401.552673,580.189270 
M345.872925,635.952393 
	C352.024414,635.785583 355.492767,633.073853 356.038025,628.004761 
	C356.553680,623.210999 353.478699,618.950134 348.893494,618.104858 
	C344.273376,617.253174 339.807861,619.946411 338.357727,624.459229 
	C336.711365,629.582642 338.810181,633.128723 345.872925,635.952393 
z"/>
<path fill="#F03B01" opacity="1.000000" stroke="none" 
	d="
M723.703125,456.159912 
	C706.066833,461.625336 688.390320,466.964783 670.801514,472.579010 
	C609.429688,492.168396 548.102783,511.898651 486.694031,531.371094 
	C483.488312,532.387634 479.407898,532.399719 476.199097,531.395508 
	C400.122223,507.587677 324.108612,483.577606 248.084778,459.600250 
	C231.580017,454.394775 215.078598,449.178619 198.581558,443.948700 
	C197.070251,443.469543 195.602219,442.853912 192.865646,441.838379 
	C197.803864,440.130096 201.478073,438.800720 205.189163,437.583832 
	C296.763550,407.555878 388.337372,377.526123 479.946350,347.604004 
	C482.147491,346.885040 484.977417,346.706421 487.130676,347.424896 
	C580.941467,378.726746 674.708923,410.158569 769.194641,441.813538 
	C760.291199,444.803772 751.879700,447.628784 742.857056,450.716949 
	C741.142395,451.291443 740.038940,451.602814 738.533813,451.928833 
	C733.746460,453.283722 729.360779,454.623932 724.655273,456.001129 
	C724.124695,456.078735 723.913879,456.119324 723.703125,456.159912 
z"/>
<path fill="#2356A1" opacity="1.000000" stroke="none" 
	d="
M433.745117,740.087524 
	C426.933777,739.170349 420.566742,738.299683 412.791534,737.236511 
	C422.854248,730.114990 431.500824,723.633972 440.546722,717.768921 
	C444.251770,715.366699 445.515839,712.703918 445.610413,708.494141 
	C445.936005,694.004456 446.473633,679.515564 447.244263,665.043152 
	C447.390930,662.288513 448.469208,659.288269 449.975922,656.955688 
	C454.882843,649.359253 454.542053,639.144470 448.732025,632.826050 
	C443.456116,627.088501 434.115051,625.808350 427.151154,629.868530 
	C417.060699,635.751587 416.028198,650.737732 424.940643,659.229614 
	C426.404266,660.624207 427.729279,662.936401 427.813477,664.880981 
	C428.353973,677.363708 428.663269,689.861755 428.702026,702.355835 
	C428.708832,704.550415 427.635620,707.287415 426.114838,708.856995 
	C418.350647,716.870422 410.296417,724.604248 402.275330,732.365173 
	C401.537262,733.079346 400.220978,733.822021 399.336395,733.660095 
	C391.872498,732.293701 384.446655,730.719727 375.780640,728.958496 
	C383.541718,722.508362 390.436432,717.045593 396.962219,711.172974 
	C398.664459,709.641052 400.112518,706.853149 400.164764,704.606934 
	C400.993622,668.959717 401.527496,633.305664 402.324585,597.657593 
	C402.377319,595.297852 403.514618,592.590332 404.988159,590.699890 
	C410.810760,583.229919 410.244385,572.622681 403.362946,566.787720 
	C396.467163,560.940552 385.627716,561.379517 379.751434,567.743774 
	C373.296265,574.735046 373.935272,585.034790 380.885071,591.980042 
	C382.274414,593.368469 383.062622,595.935303 383.123260,597.988525 
	C383.856506,622.805054 384.387695,647.627563 385.002289,672.447754 
	C385.200256,680.443054 385.349121,688.443848 385.798157,696.426575 
	C386.001984,700.050171 385.081543,702.793640 382.309509,705.231567 
	C376.055328,710.731995 370.068054,716.536926 363.781342,721.998230 
	C362.679718,722.955139 360.449158,723.510681 359.080963,723.104126 
	C353.702576,721.505859 348.460449,719.449097 342.487305,717.320129 
	C345.927795,712.929321 349.297943,709.262268 351.883026,705.106812 
	C353.612305,702.327026 355.062256,698.888489 355.196930,695.684143 
	C355.847473,680.205322 356.034668,664.706543 356.327301,649.213623 
	C356.397736,645.484802 357.183411,642.425171 359.882446,639.342163 
	C366.546692,631.729858 365.411133,619.858826 358.076385,613.757446 
	C350.730011,607.646362 339.910431,608.405945 333.786713,615.462646 
	C327.871216,622.279419 328.342926,633.075256 334.482239,640.251770 
	C336.026855,642.057373 337.219208,644.764282 337.317474,647.109558 
	C337.945190,662.090576 338.022247,677.095215 338.694458,692.073486 
	C339.056793,700.146545 333.147888,704.431641 329.043518,710.883606 
	C321.188843,706.214539 313.536804,701.901733 306.214996,697.086914 
	C304.960907,696.262207 304.686432,693.295837 304.682892,691.317505 
	C304.609222,650.157410 304.641144,608.997070 304.649872,567.836792 
	C304.653137,552.356934 304.650421,536.877075 304.650421,520.617615 
	C307.072662,521.320557 309.073700,521.863342 311.051453,522.480713 
	C364.911591,539.292969 418.786835,556.057190 472.598419,573.023560 
	C477.623810,574.608093 482.019928,574.493774 486.999939,572.855591 
	C540.751526,555.173767 594.569458,537.693604 648.369080,520.157776 
	C649.783142,519.696838 651.195251,519.230103 653.270508,518.548584 
	C653.434387,520.185974 653.691345,521.555054 653.690979,522.924194 
	C653.677002,579.915222 653.589294,636.906311 653.698364,693.897034 
	C653.707458,698.644287 652.506958,701.766968 647.983337,703.675476 
	C644.938904,704.959961 641.953918,706.636047 639.354492,708.664978 
	C635.627319,711.574097 633.179199,710.279236 630.035095,707.528992 
	C624.803040,702.952332 622.315674,697.959717 622.668030,690.679077 
	C623.311768,677.379089 622.742126,664.023743 622.968384,650.696411 
	C623.001465,648.749023 624.155457,646.309692 625.602600,644.984253 
	C632.414795,638.744934 633.538025,627.264038 627.664734,620.593567 
	C621.246155,613.303833 609.713074,612.754333 602.556213,619.397278 
	C595.498413,625.948303 595.123230,637.863647 602.214844,644.465271 
	C604.575806,646.663147 605.270203,648.729126 605.252991,651.712402 
	C605.175293,665.208191 605.614197,678.715576 605.192566,692.197693 
	C604.931213,700.555969 607.425354,707.134399 613.973450,712.281982 
	C616.039429,713.906006 617.877197,715.820435 620.562378,718.283447 
	C614.018188,721.197205 608.368164,723.847900 602.582153,726.157715 
	C601.604553,726.548035 599.699402,725.839905 598.802063,725.011658 
	C591.704163,718.459839 584.601318,711.898010 577.851440,704.995605 
	C576.227844,703.335327 575.106934,700.383179 575.126648,698.036743 
	C575.394104,666.212708 575.842163,634.389465 576.483765,602.570801 
	C576.529175,600.317139 577.938293,597.607971 579.568604,595.953430 
	C586.374023,589.046753 586.898682,578.217346 580.376526,571.653687 
	C573.483521,564.716736 562.604309,565.004395 555.901917,572.301025 
	C549.616760,579.143433 550.549438,589.854675 557.652649,596.468140 
	C559.071350,597.789062 560.023193,600.330322 560.047546,602.322815 
	C560.458374,635.981079 560.799133,669.641479 560.841492,703.301697 
	C560.848083,708.521057 562.489807,711.930420 566.621826,715.000732 
	C573.149841,719.851196 579.255371,725.270325 586.616821,731.336365 
	C579.929260,732.725281 574.375366,733.970337 568.774414,734.945129 
	C567.916687,735.094421 566.676453,734.174683 565.892517,733.447998 
	C555.996277,724.275452 546.201965,714.992371 536.262695,705.867126 
	C533.226257,703.079407 531.922546,700.073181 532.102600,695.817932 
	C532.609558,683.834656 532.509277,671.826233 532.971680,659.840149 
	C533.046570,657.899292 534.307800,655.461487 535.814941,654.209839 
	C543.558533,647.779114 545.148560,635.988647 538.933228,628.748474 
	C532.683105,621.467834 520.782532,620.681091 513.771118,627.084961 
	C506.602661,633.632324 506.166840,645.771362 513.425537,652.573059 
	C516.124634,655.102173 516.695923,657.648560 516.722717,660.854248 
	C516.831238,673.851624 517.195007,686.852051 517.002014,699.844421 
	C516.915527,705.661438 518.533997,709.623779 523.531067,713.161316 
	C534.108154,720.649292 544.117371,728.939331 555.396790,737.706604 
	C527.752319,742.728455 500.962616,744.261963 472.558899,743.663147 
	C476.605225,739.745544 479.979553,736.893494 482.808258,733.576233 
	C484.377045,731.736450 485.887482,729.151550 485.974670,726.847595 
	C487.398315,689.222412 488.611359,651.589233 489.799225,613.955505 
	C489.910431,610.431152 490.414307,607.551819 493.002960,604.581726 
	C498.827179,597.899414 497.626190,586.726135 491.228790,581.596436 
	C484.062042,575.849854 473.780151,576.679504 467.756958,583.490356 
	C461.756012,590.276001 462.550018,600.108032 469.406464,606.778137 
	C470.533234,607.874268 471.396759,609.829285 471.409973,611.395569 
	C471.710449,647.053162 471.904266,682.711731 471.982605,718.370483 
	C471.986572,720.185242 471.185059,722.318787 470.062164,723.762146 
	C465.973297,729.017883 461.453369,733.938660 457.372589,739.200256 
	C455.365875,741.787598 453.097748,742.443298 450.057892,742.023682 
	C444.781982,741.295410 439.480286,740.753784 433.745117,740.087524 
z"/>
<path fill="#FB7603" opacity="1.000000" stroke="none" 
	d="
M724.975037,455.964111 
	C729.360779,454.623932 733.746460,453.283722 738.841919,452.180420 
	C740.033630,454.800079 740.929260,457.181763 740.935486,459.565735 
	C741.027039,494.966949 740.970459,530.368530 741.093140,565.769531 
	C741.099182,567.523132 742.424561,569.272217 743.135681,571.023376 
	C744.131226,572.018066 744.948730,573.412903 746.149231,573.947205 
	C763.553589,581.693726 769.055908,607.123474 750.257202,619.519531 
	C749.850525,619.787720 749.513367,620.161255 748.585449,620.975647 
	C756.058838,637.904785 763.603821,654.996155 771.390869,672.635742 
	C746.771423,672.635742 722.872742,672.635742 698.263306,672.635742 
	C700.091919,668.265442 701.826782,664.061340 703.606689,659.876404 
	C708.558044,648.234619 713.503540,636.590393 718.510376,624.972473 
	C719.579895,622.490784 719.767212,620.845947 717.264771,618.631836 
	C701.469666,604.656738 704.248901,583.263062 723.634644,572.848022 
	C724.554504,571.093018 724.980713,569.653137 724.981689,568.212952 
	C725.006348,530.796692 724.986938,493.380402 724.975037,455.964111 
M726.873352,594.578552 
	C725.394287,598.621948 725.924500,602.598389 729.741333,604.549133 
	C732.141052,605.775635 736.354736,606.196045 738.289734,604.858582 
	C740.455261,603.361694 742.189697,599.306335 741.835571,596.670044 
	C741.513489,594.271545 738.518311,591.418213 736.019226,590.324646 
	C732.620239,588.837524 729.223877,590.388916 726.873352,594.578552 
z"/>
<path fill="#2658A4" opacity="1.000000" stroke="none" 
	d="
M532.005737,632.984436 
	C535.241455,636.817505 536.225647,641.114319 533.308289,644.617310 
	C531.383911,646.928040 527.706543,648.604797 524.640076,648.931335 
	C520.722656,649.348572 517.958435,646.424194 516.708862,642.618164 
	C515.368713,638.536377 516.550903,634.864014 519.824036,632.392090 
	C523.651489,629.501587 527.843628,629.659119 532.005737,632.984436 
z"/>
<path fill="#2658A4" opacity="1.000000" stroke="none" 
	d="
M612.568237,640.695374 
	C606.484375,637.960327 604.370850,634.169495 605.902100,629.333130 
	C607.426514,624.518005 611.966553,621.822449 616.810059,622.856750 
	C621.178162,623.789551 624.180664,627.860229 623.868347,632.426086 
	C623.507690,637.698975 619.418335,640.830139 612.568237,640.695374 
z"/>
<path fill="#2658A4" opacity="1.000000" stroke="none" 
	d="
M486.998352,599.996277 
	C481.246857,603.917480 476.738922,603.795837 473.393433,599.904724 
	C470.308411,596.316528 470.405945,591.104370 473.623169,587.625549 
	C476.778259,584.213928 482.630585,583.832703 486.335236,586.797424 
	C490.055023,589.774292 490.400269,594.587524 486.998352,599.996277 
z"/>
<path fill="#2356A1" opacity="1.000000" stroke="none" 
	d="
M442.946930,650.965820 
	C439.230591,654.075317 435.140869,654.810242 431.733154,652.131348 
	C429.583893,650.441772 427.900299,647.137695 427.588684,644.379272 
	C427.153748,640.529236 429.494873,637.357849 433.470856,636.180908 
	C437.443634,635.004822 441.108673,635.715393 443.668182,639.264221 
	C446.452576,643.124817 446.037598,646.993103 442.946930,650.965820 
z"/>
<path fill="#2658A4" opacity="1.000000" stroke="none" 
	d="
M567.316284,591.967834 
	C560.790894,589.687134 558.233337,586.183533 559.292053,581.476074 
	C560.395813,576.568298 564.755310,573.401489 569.577576,574.004578 
	C574.156555,574.577209 577.569946,578.716064 577.378662,583.463501 
	C577.173889,588.542603 573.770386,591.552368 567.316284,591.967834 
z"/>
<path fill="#2658A4" opacity="1.000000" stroke="none" 
	d="
M401.466370,580.554688 
	C400.220703,585.618896 397.098877,587.921204 392.381134,587.979858 
	C387.753632,588.037476 383.916382,584.651184 383.348999,580.265747 
	C382.746979,575.612671 385.763336,571.624512 390.713074,570.529236 
	C395.190125,569.538635 399.556488,571.913452 401.005829,576.278381 
	C401.413849,577.507080 401.382477,578.881592 401.466370,580.554688 
z"/>
<path fill="#2356A1" opacity="1.000000" stroke="none" 
	d="
M345.476257,635.884460 
	C338.810181,633.128723 336.711365,629.582642 338.357727,624.459229 
	C339.807861,619.946411 344.273376,617.253174 348.893494,618.104858 
	C353.478699,618.950134 356.553680,623.210999 356.038025,628.004761 
	C355.492767,633.073853 352.024414,635.785583 345.476257,635.884460 
z"/>
<path fill="#F26905" opacity="1.000000" stroke="none" 
	d="
M743.243164,570.562378 
	C742.424561,569.272217 741.099182,567.523132 741.093140,565.769531 
	C740.970459,530.368530 741.027039,494.966949 740.935486,459.565735 
	C740.929260,457.181763 740.033630,454.800079 739.243591,452.165741 
	C740.038940,451.602814 741.142395,451.291443 742.610474,450.988464 
	C743.071655,456.971222 743.242615,462.945435 743.252258,468.919952 
	C743.306458,502.647064 743.321899,536.374268 743.243164,570.562378 
z"/>
<path fill="#F26905" opacity="1.000000" stroke="none" 
	d="
M724.655273,456.001099 
	C724.986938,493.380402 725.006348,530.796692 724.981689,568.212952 
	C724.980713,569.653137 724.554504,571.093018 723.938721,572.728943 
	C723.606079,534.307861 723.661011,495.690979 723.709595,456.617004 
	C723.913879,456.119324 724.124695,456.078735 724.655273,456.001099 
z"/>
<path fill="#FCFAF3" opacity="1.000000" stroke="none" 
	d="
M727.023193,594.216675 
	C729.223877,590.388916 732.620239,588.837524 736.019226,590.324646 
	C738.518311,591.418213 741.513489,594.271545 741.835571,596.670044 
	C742.189697,599.306335 740.455261,603.361694 738.289734,604.858582 
	C736.354736,606.196045 732.141052,605.775635 729.741333,604.549133 
	C725.924500,602.598389 725.394287,598.621948 727.023193,594.216675 
z"/>
</svg>